<svg width="16" height="16" viewBox="0 0 16 16" fill="none" xmlns="http://www.w3.org/2000/svg">
<path d="M1.33325 4.00008C1.33325 3.64646 1.47373 3.30732 1.72378 3.05727C1.97382 2.80722 2.31296 2.66675 2.66659 2.66675H13.3333C13.6869 2.66675 14.026 2.80722 14.2761 3.05727C14.5261 3.30732 14.6666 3.64646 14.6666 4.00008V12.0001C14.6666 12.3537 14.5261 12.6928 14.2761 12.9429C14.026 13.1929 13.6869 13.3334 13.3333 13.3334H2.66659C2.31296 13.3334 1.97382 13.1929 1.72378 12.9429C1.47373 12.6928 1.33325 12.3537 1.33325 12.0001V4.00008Z" stroke="white" stroke-linecap="round" stroke-linejoin="round"/>
<path d="M1.33325 5.33325L6.33392 9.33392C6.80678 9.71226 7.39433 9.91839 7.99992 9.91839C8.60551 9.91839 9.19306 9.71226 9.66592 9.33392L14.6666 5.33325" stroke="white" stroke-linecap="round" stroke-linejoin="round"/>
</svg>
